<svg width="76" height="50" viewBox="0 0 76 50" xmlns="http://www.w3.org/2000/svg" xmlns:xlink="http://www.w3.org/1999/xlink"><defs><path d="M75.17 43.197c-1.121 4.054-4.859 6.57-9.67 6.57a12.8 12.8 0 0 1-8.737-3.448c-1.682-1.631-2.523-4.194-2.523-8.248 0-.513.094-2.004.14-3.169.094-1.677.14-3.82.14-4.473 0-4.148-1.401-6.105-4.344-6.105h-8.27l6.681 19.665c1.449 4.287 1.869 4.706 4.719 4.706h.794v1.212H26.396v-1.212h3.083c2.103 0 3.13-.652 3.13-2.097 0-.885-.14-1.724-.467-2.61l-4.064-12.767-.42-1.351-.515-1.725-1.308-4.193c-3.504 0-4.952.046-5.372 1.537l-1.122 4.008-.186.512-4.392 14.912c-.514 1.817-1.915 3.355-4.345 4.147-2.523.746-5.653.932-8.55.932-1.214 0-.793-.047-1.868-.047v-1.258h1.682c2.336 0 3.784 0 4.251-1.63l5-17.01.186-.512.514-1.817c.514-1.817 1.962-3.448 4.438-4.194 2.336-.745 6.494-.839 9.344-.839L20.93 8.295 18.174 0H33.638l7.801 23.02h7.756c5.232 0 6.634-2.05 6.634-9.926 0-5.172-.28-7.456-1.262-9.226-.887-1.678-2.756-2.656-5.092-2.656H42.84V.047h6.774c7.755 0 11.072.605 14.903 2.749 3.784 2.05 5.98 5.545 5.98 9.133 0 2.423-1.121 5.08-2.896 6.757-2.15 2.05-4.205 3.075-9.671 4.94 6.4 1.677 8.923 3.028 10.652 5.591 1.308 2.004 1.682 3.775 1.682 8.62v5.22c0 1.77.42 2.563 1.401 2.563 2.01 0 3.27-3.588 3.27-9.273l.888-.047c-.047 4.427-.187 5.22-.654 6.897z" id="a"></path></defs><g fill="none" fill-rule="evenodd"><mask id="b" fill="#fff"><use xlink:href="#a"></use></mask><use fill="#221F1F" fill-rule="nonzero" xlink:href="#a"></use><g mask="url(#b)" fill="#1d242a"><path d="M0 0h76v50H0z"></path></g></g></svg>